<svg xmlns="http://www.w3.org/2000/svg" xmlns:xlink="http://www.w3.org/1999/xlink" width="500" zoomAndPan="magnify" viewBox="0 0 375 374.999991" height="500" preserveAspectRatio="xMidYMid meet" version="1.0"><defs><g/><clipPath id="f397394486"><path d="M 63.511719 141.351562 L 311.554688 141.351562 L 311.554688 228 L 63.511719 228 Z M 63.511719 141.351562 " clip-rule="nonzero"/></clipPath><clipPath id="b607ecbef6"><path d="M 83.761719 141.351562 L 291.238281 141.351562 C 296.609375 141.351562 301.757812 143.484375 305.558594 147.28125 C 309.355469 151.078125 311.488281 156.230469 311.488281 161.601562 L 311.488281 207.398438 C 311.488281 212.769531 309.355469 217.921875 305.558594 221.71875 C 301.757812 225.515625 296.609375 227.648438 291.238281 227.648438 L 83.761719 227.648438 C 78.390625 227.648438 73.242188 225.515625 69.441406 221.71875 C 65.644531 217.921875 63.511719 212.769531 63.511719 207.398438 L 63.511719 161.601562 C 63.511719 156.230469 65.644531 151.078125 69.441406 147.28125 C 73.242188 143.484375 78.390625 141.351562 83.761719 141.351562 " clip-rule="nonzero"/></clipPath><clipPath id="d4c6c32e2b"><path d="M 70.085938 147.351562 L 318.335938 147.351562 L 318.335938 233.601562 L 70.085938 233.601562 Z M 70.085938 147.351562 " clip-rule="nonzero"/></clipPath><clipPath id="0d3ece0894"><path d="M 90.355469 147.351562 L 298.0625 147.351562 C 303.4375 147.351562 308.59375 149.484375 312.398438 153.277344 C 316.199219 157.074219 318.335938 162.222656 318.335938 167.589844 L 318.335938 213.363281 C 318.335938 218.730469 316.199219 223.878906 312.398438 227.671875 C 308.59375 231.46875 303.4375 233.601562 298.0625 233.601562 L 90.355469 233.601562 C 84.980469 233.601562 79.824219 231.46875 76.023438 227.671875 C 72.21875 223.878906 70.085938 218.730469 70.085938 213.363281 L 70.085938 167.589844 C 70.085938 162.222656 72.21875 157.074219 76.023438 153.277344 C 79.824219 149.484375 84.980469 147.351562 90.355469 147.351562 " clip-rule="nonzero"/></clipPath></defs><g clip-path="url(#f397394486)"><g clip-path="url(#b607ecbef6)"><path fill="#ffff3f" d="M 63.511719 141.351562 L 311.554688 141.351562 L 311.554688 227.625 L 63.511719 227.625 Z M 63.511719 141.351562 " fill-opacity="1" fill-rule="nonzero"/></g></g><g clip-path="url(#d4c6c32e2b)"><g clip-path="url(#0d3ece0894)"><path stroke-linecap="butt" transform="matrix(0.750851, 0, 0, 0.749593, 70.084269, 147.351216)" fill="none" stroke-linejoin="miter" d="M 26.997647 0.000462353 L 303.626628 0.000462353 C 310.785176 0.000462353 317.652388 2.845758 322.719558 7.905798 C 327.781525 12.97105 330.627256 19.839364 330.627256 26.999503 L 330.627256 88.063924 C 330.627256 95.224063 327.781525 102.092377 322.719558 107.152417 C 317.652388 112.217669 310.785176 115.062964 303.626628 115.062964 L 26.997647 115.062964 C 19.839099 115.062964 12.971887 112.217669 7.90992 107.152417 C 2.84275 102.092377 0.00222148 95.224063 0.00222148 88.063924 L 0.00222148 26.999503 C 0.00222148 19.839364 2.84275 12.97105 7.90992 7.905798 C 12.971887 2.845758 19.839099 0.000462353 26.997647 0.000462353 " stroke="#404040" stroke-width="6" stroke-opacity="1" stroke-miterlimit="4"/></g></g><g fill="#404040" fill-opacity="1"><g transform="translate(87.18194, 200.14413)"><g><path d="M 0.734375 0 L 0.734375 -3.21875 L 6.203125 -3.21875 L 6.203125 -30.609375 L 0.734375 -30.609375 L 0.734375 -33.8125 L 16.65625 -33.8125 L 16.65625 -30.609375 L 11.5 -30.609375 L 11.5 -3.21875 L 24.203125 -3.21875 L 24.203125 -14.046875 L 28.40625 -14.046875 L 28.40625 0 Z M 0.734375 0 "/></g></g><g transform="translate(116.165121, 200.14413)"><g><path d="M 13.4375 0.609375 C 11.082031 0.609375 9.015625 0.0664062 7.234375 -1.015625 C 5.453125 -2.109375 4.078125 -3.613281 3.109375 -5.53125 C 2.140625 -7.445312 1.65625 -9.625 1.65625 -12.0625 C 1.65625 -14.488281 2.113281 -16.648438 3.03125 -18.546875 C 3.957031 -20.453125 5.3125 -21.960938 7.09375 -23.078125 C 8.894531 -24.203125 10.992188 -24.765625 13.390625 -24.765625 C 15.160156 -24.765625 16.789062 -24.441406 18.28125 -23.796875 C 19.769531 -23.148438 21.015625 -22.25 22.015625 -21.09375 C 23.003906 -19.957031 23.757812 -18.613281 24.28125 -17.0625 C 24.8125 -15.507812 25.078125 -13.84375 25.078125 -12.0625 C 25.078125 -9.65625 24.617188 -7.503906 23.703125 -5.609375 C 22.785156 -3.710938 21.445312 -2.207031 19.6875 -1.09375 C 17.914062 0.0390625 15.832031 0.609375 13.4375 0.609375 Z M 13.4375 -2.25 C 14.75 -2.25 15.894531 -2.640625 16.875 -3.421875 C 17.863281 -4.210938 18.617188 -5.328125 19.140625 -6.765625 C 19.660156 -8.203125 19.921875 -9.875 19.921875 -11.78125 C 19.921875 -13.851562 19.695312 -15.632812 19.25 -17.125 C 18.800781 -18.625 18.09375 -19.820312 17.125 -20.71875 C 16.113281 -21.632812 14.867188 -22.09375 13.390625 -22.09375 C 11.941406 -22.09375 10.707031 -21.640625 9.6875 -20.734375 C 8.664062 -19.835938 7.929688 -18.609375 7.484375 -17.046875 C 7.035156 -15.554688 6.8125 -13.800781 6.8125 -11.78125 C 6.8125 -9.875 7.078125 -8.203125 7.609375 -6.765625 C 8.140625 -5.328125 8.90625 -4.210938 9.90625 -3.421875 C 10.90625 -2.640625 12.082031 -2.25 13.4375 -2.25 Z M 13.4375 -2.25 "/></g></g><g transform="translate(142.879076, 200.14413)"><g><path d="M 19.796875 -4.421875 C 17.910156 -1.066406 15.207031 0.609375 11.6875 0.609375 C 11.144531 0.609375 10.632812 0.566406 10.15625 0.484375 C 9.675781 0.410156 9.132812 0.28125 8.53125 0.09375 C 7.425781 -0.25 6.414062 -1.070312 5.5 -2.375 C 5.070312 -2.988281 4.738281 -3.785156 4.5 -4.765625 C 4.257812 -5.753906 4.140625 -6.863281 4.140625 -8.09375 L 4.140625 -21.59375 L -0.09375 -21.59375 L -0.09375 -24.109375 L 8.96875 -24.109375 L 8.96875 -8.140625 C 8.96875 -6.160156 9.28125 -4.726562 9.90625 -3.84375 C 10.539062 -2.957031 11.53125 -2.515625 12.875 -2.515625 C 13.832031 -2.515625 14.835938 -2.796875 15.890625 -3.359375 C 16.953125 -3.929688 17.84375 -4.679688 18.5625 -5.609375 C 19.28125 -6.546875 19.640625 -7.484375 19.640625 -8.421875 L 19.640625 -21.59375 L 15.546875 -21.59375 L 15.546875 -24.109375 L 24.484375 -24.109375 L 24.484375 -2.53125 L 28.84375 -2.0625 L 28.84375 0 L 19.796875 0.65625 Z M 19.796875 -4.421875 "/></g></g><g transform="translate(171.772387, 200.14413)"><g><path d="M 11.6875 0.609375 C 9.71875 0.609375 7.984375 0.0859375 6.484375 -0.953125 C 4.992188 -2.003906 3.835938 -3.488281 3.015625 -5.40625 C 2.203125 -7.332031 1.796875 -9.550781 1.796875 -12.0625 C 1.796875 -14.59375 2.210938 -16.816406 3.046875 -18.734375 C 3.878906 -20.648438 5.066406 -22.132812 6.609375 -23.1875 C 8.148438 -24.238281 9.953125 -24.765625 12.015625 -24.765625 C 13.273438 -24.765625 14.503906 -24.441406 15.703125 -23.796875 C 16.898438 -23.148438 17.875 -22.273438 18.625 -21.171875 L 18.625 -31.046875 L 13.34375 -31.046875 L 13.34375 -33.8125 L 23.453125 -33.8125 L 23.453125 -2.515625 L 27.53125 -2.515625 L 27.53125 0 L 19.546875 0 L 18.671875 -3.8125 C 17.921875 -2.4375 16.90625 -1.351562 15.625 -0.5625 C 14.34375 0.21875 13.03125 0.609375 11.6875 0.609375 Z M 12.65625 -2.25 C 13.851562 -2.25 14.929688 -2.679688 15.890625 -3.546875 C 16.859375 -4.421875 17.613281 -5.625 18.15625 -7.15625 C 18.695312 -8.6875 18.96875 -10.410156 18.96875 -12.328125 C 18.96875 -14.835938 18.488281 -17.054688 17.53125 -18.984375 C 17.03125 -19.984375 16.367188 -20.769531 15.546875 -21.34375 C 14.734375 -21.925781 13.828125 -22.21875 12.828125 -22.21875 C 11.828125 -22.21875 10.929688 -21.925781 10.140625 -21.34375 C 9.359375 -20.757812 8.734375 -19.953125 8.265625 -18.921875 C 7.378906 -16.929688 6.9375 -14.609375 6.9375 -11.953125 C 6.9375 -8.253906 7.773438 -5.503906 9.453125 -3.703125 C 10.335938 -2.734375 11.40625 -2.25 12.65625 -2.25 Z M 12.65625 -2.25 "/></g></g><g transform="translate(199.542319, 200.14413)"><g><path d="M 11.6875 0.609375 C 9.71875 0.609375 7.984375 0.0859375 6.484375 -0.953125 C 4.992188 -2.003906 3.835938 -3.488281 3.015625 -5.40625 C 2.203125 -7.332031 1.796875 -9.550781 1.796875 -12.0625 C 1.796875 -14.59375 2.210938 -16.816406 3.046875 -18.734375 C 3.878906 -20.648438 5.066406 -22.132812 6.609375 -23.1875 C 8.148438 -24.238281 9.953125 -24.765625 12.015625 -24.765625 C 13.273438 -24.765625 14.503906 -24.441406 15.703125 -23.796875 C 16.898438 -23.148438 17.875 -22.273438 18.625 -21.171875 L 18.625 -31.046875 L 13.34375 -31.046875 L 13.34375 -33.8125 L 23.453125 -33.8125 L 23.453125 -2.515625 L 27.53125 -2.515625 L 27.53125 0 L 19.546875 0 L 18.671875 -3.8125 C 17.921875 -2.4375 16.90625 -1.351562 15.625 -0.5625 C 14.34375 0.21875 13.03125 0.609375 11.6875 0.609375 Z M 12.65625 -2.25 C 13.851562 -2.25 14.929688 -2.679688 15.890625 -3.546875 C 16.859375 -4.421875 17.613281 -5.625 18.15625 -7.15625 C 18.695312 -8.6875 18.96875 -10.410156 18.96875 -12.328125 C 18.96875 -14.835938 18.488281 -17.054688 17.53125 -18.984375 C 17.03125 -19.984375 16.367188 -20.769531 15.546875 -21.34375 C 14.734375 -21.925781 13.828125 -22.21875 12.828125 -22.21875 C 11.828125 -22.21875 10.929688 -21.925781 10.140625 -21.34375 C 9.359375 -20.757812 8.734375 -19.953125 8.265625 -18.921875 C 7.378906 -16.929688 6.9375 -14.609375 6.9375 -11.953125 C 6.9375 -8.253906 7.773438 -5.503906 9.453125 -3.703125 C 10.335938 -2.734375 11.40625 -2.25 12.65625 -2.25 Z M 12.65625 -2.25 "/></g></g><g transform="translate(227.31225, 200.14413)"><g><path d="M 13.390625 0.609375 C 11.585938 0.609375 9.929688 0.269531 8.421875 -0.40625 C 6.910156 -1.09375 5.660156 -2.035156 4.671875 -3.234375 C 3.703125 -4.398438 2.957031 -5.71875 2.4375 -7.1875 C 1.914062 -8.65625 1.65625 -10.175781 1.65625 -11.75 C 1.65625 -13.113281 1.816406 -14.429688 2.140625 -15.703125 C 2.460938 -16.972656 2.941406 -18.148438 3.578125 -19.234375 C 4.953125 -21.585938 6.789062 -23.195312 9.09375 -24.0625 C 10.3125 -24.53125 11.65625 -24.765625 13.125 -24.765625 C 14.644531 -24.765625 16.066406 -24.492188 17.390625 -23.953125 C 18.710938 -23.410156 19.863281 -22.628906 20.84375 -21.609375 C 21.851562 -20.566406 22.644531 -19.25 23.21875 -17.65625 C 23.800781 -16.070312 24.101562 -14.3125 24.125 -12.375 L 6.8125 -12.375 L 6.8125 -12.203125 C 6.8125 -9.597656 7.363281 -7.398438 8.46875 -5.609375 C 9.019531 -4.710938 9.757812 -4.015625 10.6875 -3.515625 C 11.625 -3.015625 12.679688 -2.765625 13.859375 -2.765625 C 14.910156 -2.765625 15.925781 -2.984375 16.90625 -3.421875 C 17.882812 -3.867188 18.738281 -4.515625 19.46875 -5.359375 C 20.195312 -6.203125 20.71875 -7.191406 21.03125 -8.328125 L 23.65625 -7.5 C 23.269531 -5.851562 22.601562 -4.421875 21.65625 -3.203125 C 20.71875 -1.984375 19.539062 -1.039062 18.125 -0.375 C 16.71875 0.28125 15.140625 0.609375 13.390625 0.609375 Z M 19.1875 -14.8125 C 19.15625 -16.226562 18.875 -17.488281 18.34375 -18.59375 C 17.8125 -19.695312 17.097656 -20.554688 16.203125 -21.171875 C 15.316406 -21.785156 14.332031 -22.09375 13.25 -22.09375 C 12.15625 -22.09375 11.148438 -21.785156 10.234375 -21.171875 C 9.328125 -20.554688 8.582031 -19.695312 8 -18.59375 C 7.425781 -17.488281 7.082031 -16.226562 6.96875 -14.8125 Z M 19.1875 -14.8125 "/></g></g><g transform="translate(253.14997, 200.14413)"><g><path d="M 1.09375 -2.515625 L 5.484375 -2.515625 L 5.484375 -21.59375 L 1.09375 -21.59375 L 1.09375 -24.109375 L 9.609375 -24.484375 L 10.21875 -19.234375 C 10.59375 -20.503906 11.273438 -21.703125 12.265625 -22.828125 C 12.785156 -23.429688 13.429688 -23.90625 14.203125 -24.25 C 14.984375 -24.59375 15.8125 -24.765625 16.6875 -24.765625 C 17.519531 -24.765625 18.269531 -24.609375 18.9375 -24.296875 C 19.613281 -23.992188 20.148438 -23.550781 20.546875 -22.96875 C 20.941406 -22.382812 21.140625 -21.691406 21.140625 -20.890625 C 21.140625 -20.140625 20.984375 -19.484375 20.671875 -18.921875 C 20.367188 -18.367188 19.957031 -17.941406 19.4375 -17.640625 C 18.914062 -17.347656 18.335938 -17.203125 17.703125 -17.203125 C 16.816406 -17.203125 16.0625 -17.476562 15.4375 -18.03125 C 14.820312 -18.59375 14.515625 -19.316406 14.515625 -20.203125 C 14.515625 -20.484375 14.582031 -20.785156 14.71875 -21.109375 C 14.863281 -21.441406 15.019531 -21.710938 15.1875 -21.921875 L 15.4375 -22.171875 C 14.550781 -22.171875 13.765625 -21.894531 13.078125 -21.34375 C 12.390625 -20.800781 11.847656 -20.050781 11.453125 -19.09375 C 10.691406 -17.238281 10.3125 -15.179688 10.3125 -12.921875 L 10.3125 -2.515625 L 15.375 -2.515625 L 15.375 0 L 1.09375 0 Z M 1.09375 -2.515625 "/></g></g><g transform="translate(274.584043, 200.14413)"><g><path d="M 6.578125 0.453125 C 5.984375 0.453125 5.429688 0.300781 4.921875 0 C 4.421875 -0.300781 4.019531 -0.707031 3.71875 -1.21875 C 3.425781 -1.726562 3.28125 -2.273438 3.28125 -2.859375 C 3.28125 -3.472656 3.425781 -4.03125 3.71875 -4.53125 C 4.019531 -5.039062 4.421875 -5.445312 4.921875 -5.75 C 5.429688 -6.050781 5.984375 -6.203125 6.578125 -6.203125 C 7.160156 -6.203125 7.710938 -6.046875 8.234375 -5.734375 C 8.765625 -5.429688 9.179688 -5.023438 9.484375 -4.515625 C 9.796875 -4.003906 9.953125 -3.453125 9.953125 -2.859375 C 9.953125 -2.273438 9.796875 -1.726562 9.484375 -1.21875 C 9.179688 -0.707031 8.765625 -0.300781 8.234375 0 C 7.710938 0.300781 7.160156 0.453125 6.578125 0.453125 Z M 6.578125 0.453125 "/></g></g></g><g fill="#404040" fill-opacity="1"><g transform="translate(152.572938, 217.138504)"><g><path d="M 1.546875 0 L 1.546875 -11.265625 L 3.265625 -11.265625 L 5.421875 -5.25 C 5.554688 -4.863281 5.691406 -4.472656 5.828125 -4.078125 C 5.960938 -3.679688 6.097656 -3.289062 6.234375 -2.90625 L 6.296875 -2.90625 C 6.441406 -3.289062 6.570312 -3.679688 6.6875 -4.078125 C 6.8125 -4.472656 6.941406 -4.863281 7.078125 -5.25 L 9.203125 -11.265625 L 10.9375 -11.265625 L 10.9375 0 L 9.59375 0 L 9.59375 -6.203125 C 9.59375 -6.703125 9.613281 -7.253906 9.65625 -7.859375 C 9.707031 -8.472656 9.75 -9.03125 9.78125 -9.53125 L 9.71875 -9.53125 L 8.828125 -6.96875 L 6.703125 -1.140625 L 5.75 -1.140625 L 3.625 -6.96875 L 2.734375 -9.53125 L 2.65625 -9.53125 C 2.695312 -9.03125 2.734375 -8.472656 2.765625 -7.859375 C 2.804688 -7.253906 2.828125 -6.703125 2.828125 -6.203125 L 2.828125 0 Z M 1.546875 0 "/></g></g></g><g fill="#404040" fill-opacity="1"><g transform="translate(170.75792, 217.138504)"><g><path d="M 5.546875 0.203125 C 4.972656 0.203125 4.4375 0.117188 3.9375 -0.046875 C 3.4375 -0.210938 3.003906 -0.484375 2.640625 -0.859375 C 2.285156 -1.242188 2.003906 -1.742188 1.796875 -2.359375 C 1.597656 -2.984375 1.5 -3.75 1.5 -4.65625 L 1.5 -11.265625 L 2.921875 -11.265625 L 2.921875 -4.625 C 2.921875 -3.945312 2.988281 -3.378906 3.125 -2.921875 C 3.257812 -2.460938 3.441406 -2.09375 3.671875 -1.8125 C 3.910156 -1.539062 4.191406 -1.34375 4.515625 -1.21875 C 4.835938 -1.101562 5.179688 -1.046875 5.546875 -1.046875 C 5.921875 -1.046875 6.269531 -1.101562 6.59375 -1.21875 C 6.914062 -1.34375 7.195312 -1.539062 7.4375 -1.8125 C 7.675781 -2.09375 7.863281 -2.460938 8 -2.921875 C 8.132812 -3.378906 8.203125 -3.945312 8.203125 -4.625 L 8.203125 -11.265625 L 9.578125 -11.265625 L 9.578125 -4.65625 C 9.578125 -3.75 9.472656 -2.984375 9.265625 -2.359375 C 9.066406 -1.742188 8.785156 -1.242188 8.421875 -0.859375 C 8.054688 -0.484375 7.628906 -0.210938 7.140625 -0.046875 C 6.648438 0.117188 6.117188 0.203125 5.546875 0.203125 Z M 5.546875 0.203125 "/></g></g></g><g fill="#404040" fill-opacity="1"><g transform="translate(187.535055, 217.138504)"><g><path d="M 4.671875 0.203125 C 3.878906 0.203125 3.144531 0.0546875 2.46875 -0.234375 C 1.789062 -0.535156 1.207031 -0.941406 0.71875 -1.453125 L 1.578125 -2.453125 C 1.984375 -2.023438 2.457031 -1.679688 3 -1.421875 C 3.539062 -1.171875 4.101562 -1.046875 4.6875 -1.046875 C 5.425781 -1.046875 6.003906 -1.210938 6.421875 -1.546875 C 6.835938 -1.890625 7.046875 -2.335938 7.046875 -2.890625 C 7.046875 -3.171875 6.992188 -3.410156 6.890625 -3.609375 C 6.796875 -3.816406 6.664062 -3.988281 6.5 -4.125 C 6.332031 -4.269531 6.132812 -4.398438 5.90625 -4.515625 C 5.675781 -4.628906 5.429688 -4.75 5.171875 -4.875 L 3.546875 -5.578125 C 3.285156 -5.691406 3.015625 -5.828125 2.734375 -5.984375 C 2.460938 -6.148438 2.21875 -6.347656 2 -6.578125 C 1.789062 -6.804688 1.613281 -7.078125 1.46875 -7.390625 C 1.332031 -7.703125 1.265625 -8.066406 1.265625 -8.484375 C 1.265625 -8.910156 1.351562 -9.304688 1.53125 -9.671875 C 1.707031 -10.035156 1.953125 -10.351562 2.265625 -10.625 C 2.585938 -10.894531 2.960938 -11.101562 3.390625 -11.25 C 3.816406 -11.394531 4.289062 -11.46875 4.8125 -11.46875 C 5.488281 -11.46875 6.109375 -11.335938 6.671875 -11.078125 C 7.242188 -10.828125 7.734375 -10.492188 8.140625 -10.078125 L 7.359375 -9.15625 C 7.023438 -9.488281 6.644531 -9.75 6.21875 -9.9375 C 5.800781 -10.125 5.332031 -10.21875 4.8125 -10.21875 C 4.175781 -10.21875 3.664062 -10.070312 3.28125 -9.78125 C 2.90625 -9.488281 2.71875 -9.082031 2.71875 -8.5625 C 2.71875 -8.289062 2.769531 -8.0625 2.875 -7.875 C 2.988281 -7.6875 3.132812 -7.519531 3.3125 -7.375 C 3.5 -7.226562 3.695312 -7.097656 3.90625 -6.984375 C 4.125 -6.878906 4.347656 -6.785156 4.578125 -6.703125 L 6.1875 -6.015625 C 6.5 -5.867188 6.796875 -5.707031 7.078125 -5.53125 C 7.367188 -5.351562 7.617188 -5.144531 7.828125 -4.90625 C 8.035156 -4.675781 8.195312 -4.40625 8.3125 -4.09375 C 8.4375 -3.78125 8.5 -3.414062 8.5 -3 C 8.5 -2.550781 8.410156 -2.132812 8.234375 -1.75 C 8.054688 -1.363281 7.800781 -1.023438 7.46875 -0.734375 C 7.132812 -0.441406 6.734375 -0.210938 6.265625 -0.046875 C 5.796875 0.117188 5.265625 0.203125 4.671875 0.203125 Z M 4.671875 0.203125 "/></g></g></g><g fill="#404040" fill-opacity="1"><g transform="translate(202.40645, 217.138504)"><g><path d="M 1.546875 0 L 1.546875 -11.265625 L 2.96875 -11.265625 L 2.96875 0 Z M 1.546875 0 "/></g></g></g><g fill="#404040" fill-opacity="1"><g transform="translate(212.625099, 217.138504)"><g><path d="M 5.796875 0.203125 C 5.085938 0.203125 4.4375 0.0703125 3.84375 -0.1875 C 3.25 -0.445312 2.726562 -0.828125 2.28125 -1.328125 C 1.84375 -1.828125 1.5 -2.441406 1.25 -3.171875 C 1.007812 -3.898438 0.890625 -4.71875 0.890625 -5.625 C 0.890625 -6.53125 1.015625 -7.34375 1.265625 -8.0625 C 1.523438 -8.789062 1.875 -9.40625 2.3125 -9.90625 C 2.757812 -10.40625 3.285156 -10.789062 3.890625 -11.0625 C 4.503906 -11.332031 5.171875 -11.46875 5.890625 -11.46875 C 6.578125 -11.46875 7.179688 -11.328125 7.703125 -11.046875 C 8.222656 -10.765625 8.648438 -10.441406 8.984375 -10.078125 L 8.203125 -9.15625 C 7.910156 -9.476562 7.570312 -9.734375 7.1875 -9.921875 C 6.8125 -10.117188 6.382812 -10.21875 5.90625 -10.21875 C 5.363281 -10.21875 4.875 -10.109375 4.4375 -9.890625 C 4.007812 -9.679688 3.640625 -9.378906 3.328125 -8.984375 C 3.023438 -8.585938 2.789062 -8.109375 2.625 -7.546875 C 2.457031 -6.992188 2.375 -6.367188 2.375 -5.671875 C 2.375 -4.960938 2.457031 -4.320312 2.625 -3.75 C 2.789062 -3.1875 3.019531 -2.703125 3.3125 -2.296875 C 3.613281 -1.898438 3.976562 -1.59375 4.40625 -1.375 C 4.832031 -1.15625 5.316406 -1.046875 5.859375 -1.046875 C 6.410156 -1.046875 6.890625 -1.15625 7.296875 -1.375 C 7.710938 -1.601562 8.101562 -1.914062 8.46875 -2.3125 L 9.25 -1.421875 C 8.800781 -0.910156 8.296875 -0.507812 7.734375 -0.21875 C 7.179688 0.0625 6.535156 0.203125 5.796875 0.203125 Z M 5.796875 0.203125 "/></g></g></g></svg>